<svg width="152" height="152" viewBox="0 0 152 152" fill="none" xmlns="http://www.w3.org/2000/svg">
<path fill-rule="evenodd" clip-rule="evenodd" d="M79.4508 9.74223C95.8263 18.276 105.117 28.2721 117.167 39.746C129.292 51.2914 145.081 59.9465 148.936 75.9081C153.715 95.6922 154.39 119.055 139.902 133.869C125.212 148.888 100.925 147.113 79.4508 146.952C58.2174 146.794 38.1011 138.894 22.5992 124.981C6.74405 110.75 -1.72612 96.6409 0.294808 75.9081C2.15375 56.8372 15.5136 25.3847 30.5717 12.7978C44.446 1.2004 63.0752 1.20851 79.4508 9.74223Z" fill="#B9AFE6"/>
<path fill-rule="evenodd" clip-rule="evenodd" d="M140.569 37.5545C142.555 39.2329 144.22 41.5899 144.586 43.8187C144.955 46.0692 143.939 48.0087 142.461 49.0864C141.091 50.0851 138.992 49.8004 136.929 49.3074C134.928 48.8295 132.862 48.0553 131.17 46.3891C129.389 44.6339 127.783 42.3154 127.763 40.2774C127.744 38.3621 129.688 37.8424 131.077 36.9758C132.192 36.2805 133.349 35.7454 134.877 35.8385C136.761 35.9534 138.804 36.0628 140.569 37.5545Z" fill="#B9AFE6"/>
<path fill-rule="evenodd" clip-rule="evenodd" d="M120.452 37.1912C119.455 36.6796 118.527 35.8521 118.157 34.952C117.783 34.0431 118.021 33.1302 118.537 32.5342C119.014 31.9818 119.923 31.8973 120.837 31.9036C121.724 31.9098 122.666 32.0339 123.538 32.569C124.457 33.1326 125.356 33.9498 125.563 34.8034C125.757 35.6056 124.991 36.0127 124.492 36.5115C124.092 36.9117 123.658 37.2488 123.008 37.3582C122.206 37.4932 121.337 37.6458 120.452 37.1912Z" fill="#B9AFE6"/>
<path d="M38 24L47 10L102 12L108.5 26.5V79.5L113 89.5L115 140L38 137.5L35.5 88L38 83.5V24Z" fill="white"/>
<path d="M46.4236 8.81725C46.003 8.94868 45.5036 9.18526 45.267 9.36925C44.6624 9.89497 40.4304 15.5201 37.8018 19.279L35.4887 22.591L35.3047 24.8516C35.0418 27.9796 36.1458 80.2621 36.4876 80.6564C36.6716 80.893 36.2247 81.7604 34.9104 83.7056C33.9115 85.2039 33.0967 86.6759 33.0967 86.9913C33.123 87.2804 33.2807 90.2508 33.491 93.5891C33.7013 96.9011 33.9904 107.915 34.1481 118.035C34.3058 128.155 34.5161 136.934 34.5687 137.565C34.6738 138.301 34.963 138.985 35.4098 139.484C36.067 140.22 36.3036 140.299 38.6167 140.509C49.7882 141.534 65.6911 142.06 91.9769 142.244C114.846 142.402 114.977 142.402 116.212 141.876C117.132 141.456 117.5 141.14 117.632 140.588C117.947 139.379 116.554 110.833 115.476 95.8233L115.056 89.9353L113.111 86.1502L111.166 82.3913L111.455 74.1901C112.112 55.5009 111.113 29.8985 109.483 23.5373C108.642 20.3304 107.118 16.5979 105.488 13.7853C105.015 12.9967 104.542 12.0241 104.463 11.6561C104.358 11.2881 104.016 10.7098 103.674 10.3944C103.148 9.92125 102.518 9.78983 98.3907 9.4481C95.7884 9.23782 89.9004 8.94868 85.2741 8.81725C75.154 8.50182 47.4487 8.50182 46.4236 8.81725ZM94.3427 13.5487C97.0238 13.7064 99.5473 13.943 99.9678 14.0481C100.572 14.1796 100.94 14.6527 102.018 16.6504C103.148 18.727 105.278 24.0367 105.067 24.1945C105.015 24.2207 101.729 23.9842 97.7598 23.6425C74.1026 21.671 57.3848 21.0402 46.1345 21.6973C43.6899 21.855 41.6396 21.9076 41.5607 21.855C41.4293 21.6973 43.8213 18.2539 46.2133 15.1521L47.8956 12.9704L68.6877 13.1018C80.122 13.1807 91.6615 13.3647 94.3427 13.5487ZM78.0454 26.5602C81.594 26.7968 87.3769 27.2173 90.9255 27.4802C94.4741 27.7693 99.1793 28.1373 101.361 28.3213C103.569 28.479 105.488 28.6893 105.646 28.7945C105.961 29.0048 106.618 35.9442 106.96 42.9888C107.249 49.0871 107.302 72.797 107.012 74.4004L106.828 75.4518L106.513 74.4004C106.329 73.7958 106.014 69.1695 105.777 63.7546C105.33 53.3454 105.094 48.798 104.436 39.3088C103.99 32.7374 103.779 31.7911 102.465 30.8711C101.676 30.2928 94.7107 29.9248 64.9025 28.8996C46.2133 28.2425 44.4522 28.2162 43.5584 28.6105C41.7973 29.3728 41.6921 29.7145 42.0339 34.8928C42.3756 40.4128 42.7962 56.7889 42.8224 65.5421L42.8487 71.9558L41.7184 73.8221L40.5881 75.7147L40.5093 73.8747C40.4304 71.7192 39.4841 26.5865 39.5104 26.5076C39.5367 26.4813 41.3241 26.3499 43.4796 26.1922C49.131 25.8242 70.3174 26.0345 78.0454 26.5602ZM60.1711 33.6574C73.1563 34.1305 90.5575 34.8139 95.5255 35.0505L99.2055 35.2345L99.6524 42.0688C99.9941 47.2734 101.177 69.5901 101.177 70.7204C101.177 70.9307 76.2843 70.6678 65.4282 70.3261C55.5185 70.0107 48.0533 69.5112 47.9482 69.1695C47.8956 69.0118 47.7116 62.2563 47.5539 54.1603C47.3962 46.0643 47.1859 38.0471 47.107 36.3385L46.9493 33.2631H48.2373C48.947 33.2631 54.3093 33.4471 60.1711 33.6574ZM53.9939 74.7947C60.2499 75.2152 73.0511 75.5833 81.1997 75.5833C85.3266 75.5833 91.7929 75.6621 95.5518 75.7673L102.412 75.925L103.122 77.3444C103.49 78.1067 104.936 80.5776 106.329 82.8381C107.722 85.0724 108.826 86.9387 108.774 86.9913C108.563 87.1753 100.835 86.6496 100.651 86.4393C100.546 86.3342 100.126 85.2564 99.7313 84.0736C98.8901 81.445 98.4695 80.893 97.1027 80.5776C96.5244 80.4461 91.0306 80.3147 84.8798 80.3147H73.682L72.946 79.0267C72.5254 78.317 71.8946 77.6073 71.5528 77.4495C71.1323 77.2655 67.3997 77.1604 60.2762 77.1604C50.7345 77.1604 49.5253 77.213 48.8682 77.6073C48.0796 78.0541 47.1859 79.789 45.9767 83.1273L45.3722 84.7833H42.6647C41.1927 84.7833 39.9047 84.7044 39.8521 84.573C39.7733 84.4679 40.667 83.0747 41.8236 81.4976C42.9802 79.8941 44.531 77.6073 45.267 76.3981L46.6076 74.2164L48.3425 74.3741C49.2887 74.453 51.8385 74.637 53.9939 74.7947ZM70.1597 82.8119C71.6054 84.9147 70.738 84.7833 83.7232 84.7833H95.3415L95.6307 85.5719L95.8935 86.3604H94.0009C91.6615 86.3604 60.0134 85.3616 54.2305 85.0987L49.9722 84.9147L50.6293 83.2587L51.2865 81.629H60.3288H69.3448L70.1597 82.8119ZM50.971 89.7776C87.9289 90.9342 110.088 91.7753 110.351 92.0382C110.535 92.2222 111.639 109.571 112.191 121.452C112.48 127.524 112.795 133.675 112.9 135.094L113.058 137.697L91.7929 137.513C67.4785 137.329 48.0007 136.698 40.5619 135.883L39.2213 135.752L39.0373 121.899C38.8533 108.809 38.5904 98.8988 38.1961 92.1959L38.0121 89.2519L40.2201 89.3833C41.4293 89.4622 46.2659 89.6462 50.971 89.7776Z" fill="#212934"/>
<path d="M57.8843 46.3534C57.1483 46.4585 56.2283 47.5888 56.2283 48.4037C56.2283 49.166 58.6729 52.7934 59.7243 53.6083C61.1174 54.6597 67.1369 55.1591 78.9918 55.1854C88.113 55.2117 88.7964 55.1854 89.2958 54.7386C89.9793 54.134 91.1884 50.8746 91.1884 49.6654C91.1884 48.5614 90.2159 47.4574 89.2433 47.4574C88.3233 47.4574 87.1141 48.5614 86.7461 49.7968L86.4307 50.8746H79.4124C72.9986 50.8483 68.3198 50.6643 63.9037 50.1911L62.2214 50.0071L61.0386 48.3511C59.8294 46.6951 59.0146 46.1694 57.8843 46.3534Z" fill="#212934"/>
<path d="M55.5446 108.283C54.1515 108.887 54.0463 110.175 55.0715 113.487C56.2018 117.089 54.0989 116.747 73.5241 116.642C85.6419 116.563 90.3996 116.458 90.8465 116.247C91.5825 115.853 94.3162 111.805 94.5265 110.78C94.8945 108.861 91.2408 107.047 89.6373 108.362C89.3219 108.651 88.9539 109.439 88.7699 110.412L88.4282 111.989L84.091 112.147C81.699 112.226 75.4956 112.331 70.291 112.331L60.8281 112.357L59.6978 110.99C57.5949 108.388 57.4109 108.23 56.8852 108.073C56.596 107.994 55.9915 108.099 55.5446 108.283Z" fill="#212934"/>
</svg>
