<svg width="221" height="25" viewBox="0 0 221 25" fill="none" xmlns="http://www.w3.org/2000/svg">
<g clip-path="url(#clip0_385_1238)">
<path d="M7.03003 19.6899C6.01003 19.6899 4.98003 19.2999 4.20003 18.5199C2.64003 16.9599 2.64003 14.4199 4.20003 12.8599L7.74003 9.3199C8.49003 8.5599 9.50003 8.1499 10.57 8.1499C11.64 8.1499 12.64 8.5699 13.4 9.3199C14.04 9.9599 14.43 10.7699 14.54 11.6599C14.59 12.0699 14.3 12.4499 13.89 12.4999C13.49 12.5399 13.1 12.2599 13.06 11.8499C12.99 11.2899 12.74 10.7899 12.35 10.3899C11.4 9.4499 9.76003 9.4499 8.81003 10.3899L5.27003 13.9299C4.30003 14.8999 4.30003 16.4899 5.27003 17.4699C6.24003 18.4499 7.83003 18.4399 8.81003 17.4699L9.74003 16.5399C10.03 16.2499 10.51 16.2499 10.8 16.5399C11.09 16.8299 11.09 17.3099 10.8 17.5999L9.87003 18.5299C9.08003 19.2999 8.05003 19.6899 7.03003 19.6899Z" fill="#212934"/>
<path d="M13.4401 16.1099C12.4201 16.1099 11.3901 15.7199 10.6101 14.9399C9.97008 14.2999 9.58008 13.4899 9.47008 12.5999C9.42008 12.1899 9.71008 11.8199 10.1201 11.7699C10.5201 11.7299 10.9001 12.0099 10.9501 12.4199C11.0201 12.9799 11.2601 13.4799 11.6601 13.8799C12.6301 14.8499 14.2201 14.8499 15.2001 13.8799L18.7401 10.3399C19.2101 9.86992 19.4701 9.23992 19.4701 8.56992C19.4701 7.89992 19.2101 7.26992 18.7401 6.79992C17.8001 5.85992 16.1501 5.85992 15.2001 6.79992L14.2701 7.72992C13.9801 8.01992 13.5001 8.01992 13.2101 7.72992C12.9201 7.43992 12.9201 6.95992 13.2101 6.66992L14.1401 5.73992C15.6501 4.22992 18.2901 4.22992 19.8001 5.73992C20.5601 6.49992 20.9701 7.49992 20.9701 8.56992C20.9701 9.63992 20.5501 10.6399 19.8001 11.3999L16.2601 14.9399C15.4801 15.7199 14.4601 16.1099 13.4401 16.1099Z" fill="#212934"/>
</g>
<path d="M36.9315 7.79998V10.64H41.5115V13.28H36.9315V16.36H42.1115V19.1H33.5115V5.05998H42.1115V7.79998H36.9315ZM49.9318 10.78H48.0918V19.1H44.6718V10.78H43.4318V7.93998H44.6718V7.61998C44.6718 6.24664 45.0651 5.20664 45.8518 4.49998C46.6385 3.77997 47.7918 3.41997 49.3118 3.41997C49.5651 3.41997 49.7518 3.42664 49.8718 3.43997V6.33998C49.2185 6.29998 48.7585 6.39331 48.4918 6.61998C48.2251 6.84664 48.0918 7.25331 48.0918 7.83998V7.93998H49.9318V10.78ZM57.1388 10.78H55.2988V19.1H51.8788V10.78H50.6388V7.93998H51.8788V7.61998C51.8788 6.24664 52.2722 5.20664 53.0588 4.49998C53.8455 3.77997 54.9988 3.41997 56.5188 3.41997C56.7722 3.41997 56.9588 3.42664 57.0788 3.43997V6.33998C56.4255 6.29998 55.9655 6.39331 55.6988 6.61998C55.4322 6.84664 55.2988 7.25331 55.2988 7.83998V7.93998H57.1388V10.78ZM60.4659 6.77997C59.8659 6.77997 59.3725 6.60664 58.9859 6.25998C58.6125 5.89998 58.4259 5.45998 58.4259 4.93998C58.4259 4.40664 58.6125 3.96664 58.9859 3.61997C59.3725 3.25997 59.8659 3.07997 60.4659 3.07997C61.0525 3.07997 61.5325 3.25997 61.9059 3.61997C62.2925 3.96664 62.4859 4.40664 62.4859 4.93998C62.4859 5.45998 62.2925 5.89998 61.9059 6.25998C61.5325 6.60664 61.0525 6.77997 60.4659 6.77997ZM62.1659 7.93998V19.1H58.7459V7.93998H62.1659ZM75.1643 13.34C75.1643 13.66 75.1443 13.9933 75.1043 14.34H67.3643C67.4176 15.0333 67.6376 15.5666 68.0243 15.94C68.4243 16.3 68.911 16.48 69.4843 16.48C70.3376 16.48 70.931 16.12 71.2643 15.4H74.9043C74.7176 16.1333 74.3776 16.7933 73.8843 17.38C73.4043 17.9666 72.7976 18.4266 72.0643 18.76C71.331 19.0933 70.511 19.26 69.6043 19.26C68.511 19.26 67.5376 19.0266 66.6843 18.56C65.831 18.0933 65.1643 17.4266 64.6843 16.56C64.2043 15.6933 63.9643 14.68 63.9643 13.52C63.9643 12.36 64.1976 11.3466 64.6643 10.48C65.1443 9.61331 65.811 8.94664 66.6643 8.47998C67.5176 8.01331 68.4976 7.77997 69.6043 7.77997C70.6843 7.77997 71.6443 8.00664 72.4843 8.45998C73.3243 8.91331 73.9776 9.55998 74.4443 10.4C74.9243 11.24 75.1643 12.22 75.1643 13.34ZM71.6643 12.44C71.6643 11.8533 71.4643 11.3866 71.0643 11.04C70.6643 10.6933 70.1643 10.52 69.5643 10.52C68.991 10.52 68.5043 10.6866 68.1043 11.02C67.7176 11.3533 67.4776 11.8266 67.3843 12.44H71.6643Z" fill="#434D5A"/>
<defs>
<clipPath id="clip0_385_1238">
<rect width="24" height="24" fill="white" transform="translate(0 0.0999756)"/>
</clipPath>
</defs>
</svg>
