<svg width="24" height="24" viewBox="0 0 24 24" fill="none" xmlns="http://www.w3.org/2000/svg">
<g clip-path="url(#clip0_380_1701)">
<path d="M18.8999 4.76004C16.9599 2.92004 14.4199 1.94004 11.7599 2.00004C9.08992 2.07004 6.59992 3.17004 4.75992 5.10004C2.91992 7.04004 1.93991 9.57004 1.99991 12.24C2.06991 14.91 3.16991 17.4 5.09991 19.24C6.97991 21.03 9.40991 22 11.9899 22H12.2399C14.9099 21.93 17.3999 20.83 19.2399 18.9C21.0299 17.02 21.9999 14.58 21.9999 11.99V11.76C21.9299 9.09004 20.8299 6.60004 18.8999 4.76004ZM18.1499 17.86C16.5899 19.51 14.4799 20.44 12.2099 20.5C9.94991 20.55 7.77991 19.72 6.13991 18.15C4.48991 16.59 3.55991 14.48 3.49991 12.21C3.44991 9.94004 4.27991 7.78004 5.84991 6.14004C7.40991 4.49004 9.51992 3.56004 11.7899 3.50004H12.0099C14.1999 3.50004 16.2699 4.33004 17.8599 5.85004C18.6799 6.63004 19.3299 7.55004 19.7799 8.55004C20.2199 9.56004 20.4699 10.66 20.4999 11.79C20.5499 14.06 19.7199 16.22 18.1499 17.86Z" fill="#7766C6"/>
<path d="M15.7799 14.7201C16.0699 15.0101 16.0699 15.4901 15.7799 15.7801C15.6299 15.9301 15.4399 16.0001 15.2499 16.0001C15.0599 16.0001 14.8699 15.9301 14.7199 15.7801L11.9999 13.0601L9.27994 15.7801C9.12994 15.9301 8.93994 16.0001 8.74994 16.0001C8.55994 16.0001 8.36994 15.9301 8.21994 15.7801C7.92994 15.4901 7.92994 15.0101 8.21994 14.7201L10.9399 12.0001L8.21994 9.28006C7.92994 8.99006 7.92994 8.51006 8.21994 8.22006C8.50994 7.93006 8.98994 7.93006 9.27994 8.22006L11.9999 10.9401L14.7199 8.22006C15.0099 7.93006 15.4899 7.93006 15.7799 8.22006C16.0699 8.51006 16.0699 8.99006 15.7799 9.28006L13.0599 12.0001L15.7799 14.7201Z" fill="#7766C6"/>
</g>
<defs>
<clipPath id="clip0_380_1701">
<rect width="24" height="24" fill="white"/>
</clipPath>
</defs>
</svg>
