<svg width="24" height="24" viewBox="0 0 24 24" fill="none" xmlns="http://www.w3.org/2000/svg">
<g>
<path d="M6 14.5H4.75C4.61 14.5 4.5 14.39 4.5 14.25V13C4.5 12.59 4.16 12.25 3.75 12.25C3.34 12.25 3 12.59 3 13V14.25C3 15.21 3.78 16 4.75 16H6C6.41 16 6.75 15.66 6.75 15.25C6.75 14.84 6.41 14.5 6 14.5Z" fill="#B8C4CE"/>
<path d="M12 4.5H13.25C13.39 4.5 13.5 4.61 13.5 4.75V6C13.5 6.41 13.84 6.75 14.25 6.75C14.66 6.75 15 6.41 15 6V4.75C15 3.78 14.21 3 13.25 3H12C11.59 3 11.25 3.34 11.25 3.75C11.25 4.16 11.59 4.5 12 4.5Z" fill="#B8C4CE"/>
<path d="M6 3H4.75C3.78 3 3 3.78 3 4.75V6C3 6.41 3.34 6.75 3.75 6.75C4.16 6.75 4.5 6.41 4.5 6V4.75C4.5 4.61 4.61 4.5 4.75 4.5H6C6.41 4.5 6.75 4.16 6.75 3.75C6.75 3.34 6.41 3 6 3Z" fill="#B8C4CE"/>
<path d="M19.25 8.01001H10.75C9.78 8.01001 9 8.79001 9 9.76001V19.26C9 20.22 9.79 21.01 10.75 21.01H19.25C20.21 21.01 21 20.22 21 19.26V9.76001C21 8.79001 20.21 8.01001 19.25 8.01001ZM19.5 19.26C19.5 19.4 19.39 19.51 19.25 19.51H10.75C10.61 19.51 10.5 19.4 10.5 19.26V9.76001C10.5 9.62001 10.61 9.51001 10.75 9.51001H19.25C19.39 9.51001 19.5 9.62001 19.5 9.76001V19.26Z" fill="#B8C4CE"/>
</g>
</svg>
