<svg width="120" height="120" viewBox="0 0 120 120" fill="none" xmlns="http://www.w3.org/2000/svg">
<g clip-path="url(#clip0_307_885)">
<path d="M94.4998 23.8C84.7998 14.6 72.1498 9.7 58.7998 10C45.4498 10.35 32.9998 15.85 23.7998 25.5C14.5998 35.2 9.69982 47.85 9.99982 61.2C10.3498 74.55 15.8498 87 25.4998 96.2C25.8998 96.6 26.2998 96.95 26.7498 97.3C35.9498 105.55 47.5998 110 59.9498 110H61.1998C73.1498 109.7 84.3998 105.25 93.2498 97.3C94.2498 96.45 95.2498 95.5 96.1998 94.5C105.15 85.1 110 72.9 110 59.95V58.8C109.65 45.45 104.15 33 94.4998 23.8ZM61.0498 102.5C50.9498 102.7 41.2998 99.45 33.5498 93.2C35.7998 86.9 41.9498 82.55 48.7498 82.55H71.2498C78.0498 82.55 84.1998 86.9 86.4498 93.2C79.2498 99.05 70.4498 102.25 61.0498 102.5ZM92.1998 87.65C88.1498 80.1 80.1498 75.05 71.2498 75.05H48.7498C39.8498 75.05 31.7998 80.1 27.7998 87.7C21.3498 80.3 17.7498 71 17.4998 61.05C17.2498 49.7 21.3998 38.9 29.2498 30.7C37.0498 22.45 47.5998 17.8 58.9498 17.5H60.0498C70.9998 17.5 81.3498 21.65 89.2998 29.25C93.3998 33.15 96.6498 37.75 98.8998 42.75C101.1 47.8 102.35 53.3 102.5 58.95C102.75 69.55 99.1498 79.7 92.1998 87.65Z" fill="#212934"/>
<path d="M73.75 67.5H58.75C49.8 67.5 42.5 60.2 42.5 51.25V41.25C42.5 32.3 49.8 25 58.75 25H61.25C70.2 25 77.5 32.3 77.5 41.25V63.75C77.5 65.8 75.8 67.5 73.75 67.5ZM58.75 32.5C53.95 32.5 50 36.45 50 41.25V51.25C50 56.05 53.95 60 58.75 60H70V41.25C70 36.45 66.05 32.5 61.25 32.5H58.75Z" fill="#212934"/>
</g>
<defs>
<clipPath id="clip0_307_885">
<rect width="120" height="120" fill="white"/>
</clipPath>
</defs>
</svg>
