<svg width="24" height="24" viewBox="0 0 24 24" fill="none" xmlns="http://www.w3.org/2000/svg">
<g clip-path="url(#clip0_338_938)">
<path d="M12 17C11.59 17 11.25 16.66 11.25 16.25V11.25C11.25 10.84 11.59 10.5 12 10.5C12.41 10.5 12.75 10.84 12.75 11.25V16.25C12.75 16.66 12.41 17 12 17Z" fill="#1A4971"/>
<path d="M12 9C11.74 9 11.48 8.89 11.29 8.71C11.2 8.61 11.13 8.51 11.08 8.38C11.03 8.26 11 8.13 11 8C11 7.74 11.11 7.48 11.29 7.29C11.67 6.92 12.33 6.92 12.7 7.29C12.89 7.48 13 7.74 13 8C13 8.13 12.97 8.26 12.92 8.38C12.87 8.51 12.8 8.61 12.7 8.71C12.61 8.8 12.5 8.87 12.38 8.92C12.26 8.97 12.13 9 12 9Z" fill="#1A4971"/>
<path d="M11.9896 22C9.40957 22 6.96957 21.03 5.09957 19.24C3.16957 17.4 2.06957 14.91 1.99957 12.24C1.92957 9.57 2.91957 7.04 4.75957 5.1C6.59957 3.17 9.08957 2.07 11.7596 2C14.4096 1.94 16.9696 2.91 18.8996 4.76C20.8296 6.6 21.9296 9.09 21.9996 11.76C22.0596 14.43 21.0896 16.97 19.2396 18.9C17.3996 20.83 14.9096 21.93 12.2396 22C12.1596 22 12.0796 22 11.9896 22ZM12.0096 3.5C11.9396 3.5 11.8696 3.5 11.7996 3.5C9.51957 3.56 7.40957 4.49 5.84957 6.14C4.27957 7.78 3.44957 9.94 3.50957 12.21C3.55957 14.48 4.49957 16.59 6.13957 18.16C7.77957 19.73 9.94957 20.56 12.2096 20.5C14.4796 20.45 16.5896 19.51 18.1596 17.87C19.7296 16.23 20.5596 14.07 20.4996 11.8C20.4496 9.53 19.5096 7.42 17.8696 5.85C16.2696 4.33 14.1996 3.5 12.0096 3.5Z" fill="#1A4971"/>
</g>
<defs>
<clipPath id="clip0_338_938">
<rect width="24" height="24" fill="white"/>
</clipPath>
</defs>
</svg>
