<svg width="18" height="18" viewBox="0 0 18 18" fill="none" xmlns="http://www.w3.org/2000/svg">
<path d="M13 9C13 9.05 12.99 9.1 12.98 9.15C12.95 9.3 12.88 9.43 12.78 9.53L8.53 13.78C8.38 13.93 8.19 14 8 14C7.81 14 7.62 13.93 7.47 13.78C7.18 13.49 7.18 13.01 7.47 12.72L10.44 9.75H0.75C0.34 9.75 0 9.41 0 9C0 8.59 0.34 8.25 0.75 8.25H10.44L7.47 5.28C7.18 4.99 7.18 4.51 7.47 4.22C7.76 3.93 8.24 3.93 8.53 4.22L12.78 8.47C12.88 8.57 12.95 8.7 12.98 8.85C12.99 8.9 13 8.95 13 9Z" fill="#7766C6"/>
<path d="M15.25 18H7.75C7.34 18 7 17.66 7 17.25C7 16.84 7.34 16.5 7.75 16.5H15.25C15.94 16.5 16.5 15.94 16.5 15.25V2.75C16.5 2.06 15.94 1.5 15.25 1.5H7.75C7.34 1.5 7 1.16 7 0.75C7 0.34 7.34 0 7.75 0H15.25C16.77 0 18 1.23 18 2.75V15.25C18 16.77 16.77 18 15.25 18Z" fill="#7766C6"/>
</svg>
