<svg width="24" height="24" viewBox="0 0 24 24" fill="none" xmlns="http://www.w3.org/2000/svg">
<g clip-path="url(#clip0_462_984)">
<path d="M21 12C21 12.05 20.99 12.1 20.98 12.15C20.95 12.3 20.88 12.43 20.78 12.53L16.53 16.78C16.38 16.93 16.19 17 16 17C15.81 17 15.62 16.93 15.47 16.78C15.18 16.49 15.18 16.01 15.47 15.72L18.44 12.75H8.75C8.34 12.75 8 12.41 8 12C8 11.59 8.34 11.25 8.75 11.25H18.44L15.47 8.28C15.18 7.99 15.18 7.51 15.47 7.22C15.76 6.93 16.24 6.93 16.53 7.22L20.78 11.47C20.88 11.57 20.95 11.7 20.98 11.85C20.99 11.9 21 11.95 21 12Z" fill="#DA3030"/>
<path d="M13.25 21H5.75C4.23 21 3 19.77 3 18.25V5.75C3 4.23 4.23 3 5.75 3H13.25C13.66 3 14 3.34 14 3.75C14 4.16 13.66 4.5 13.25 4.5H5.75C5.06 4.5 4.5 5.06 4.5 5.75V18.25C4.5 18.94 5.06 19.5 5.75 19.5H13.25C13.66 19.5 14 19.84 14 20.25C14 20.66 13.66 21 13.25 21Z" fill="#DA3030"/>
</g>
<defs>
<clipPath id="clip0_462_984">
<rect width="24" height="24" fill="white"/>
</clipPath>
</defs>
</svg>
