<svg width="18" height="18" viewBox="0 0 18 18" fill="none" xmlns="http://www.w3.org/2000/svg">
<path d="M4.01 15.16C2.98 15.16 1.96 14.77 1.17 13.99C-0.39 12.43 -0.39 9.87998 1.17 8.31998L4.72 4.76998C6.28 3.20998 8.83 3.20998 10.39 4.76998C11.03 5.40998 11.43 6.21998 11.54 7.11998C11.59 7.52998 11.3 7.90998 10.89 7.95998C10.48 8.01998 10.1 7.71998 10.05 7.30998C9.98 6.74998 9.73 6.23998 9.33 5.83998C8.35 4.85998 6.76 4.85998 5.78 5.83998L2.23 9.38998C1.25 10.37 1.25 11.96 2.23 12.94C3.21 13.92 4.8 13.92 5.78 12.94L6.72 12C7.01 11.71 7.49 11.71 7.78 12C8.07 12.29 8.07 12.77 7.78 13.06L6.85 13.99C6.07 14.77 5.04 15.16 4.01 15.16Z" fill="white"/>
<path d="M10.44 11.57C9.41 11.57 8.39 11.18 7.6 10.4C6.96 9.76 6.56 8.95 6.45 8.05C6.4 7.64 6.69 7.26 7.1 7.21C7.52 7.16 7.89 7.45 7.94 7.86C8.01 8.42 8.26 8.93 8.66 9.33C9.64 10.31 11.23 10.31 12.21 9.33L15.76 5.78C16.74 4.8 16.74 3.21 15.76 2.23C14.78 1.25 13.19 1.25 12.21 2.23L11.28 3.16C10.99 3.45 10.51 3.45 10.22 3.16C9.93 2.87 9.93 2.39 10.22 2.1L11.15 1.17C12.71 -0.39 15.26 -0.39 16.82 1.17C18.38 2.73 18.38 5.28 16.82 6.84L13.27 10.39C12.49 11.18 11.47 11.57 10.44 11.57Z" fill="white"/>
<path d="M18 14.75C18 15.16 17.66 15.5 17.25 15.5H15.5V17.25C15.5 17.66 15.16 18 14.75 18C14.34 18 14 17.66 14 17.25V15.5H12.25C11.84 15.5 11.5 15.16 11.5 14.75C11.5 14.34 11.84 14 12.25 14H14V12.25C14 11.84 14.34 11.5 14.75 11.5C15.16 11.5 15.5 11.84 15.5 12.25V14H17.25C17.66 14 18 14.34 18 14.75Z" fill="white"/>
</svg>
