<svg width="24" height="24" viewBox="0 0 24 24" fill="none" xmlns="http://www.w3.org/2000/svg">
<g clip-path="url(#clip0_424_1160)">
<path d="M20.7099 10.71C20.5099 10.9 20.2599 11 19.9999 11C19.7399 11 19.4899 10.9 19.2899 10.71L19.0899 10.51L15.4799 14.63C16.5099 16.41 16.2399 18.71 14.7499 20.19L14.4199 20.53C14.2799 20.67 14.0899 20.75 13.8899 20.75C13.6899 20.75 13.4999 20.67 13.3599 20.53L9.11994 16.29L5.64994 19.76C5.44994 19.96 5.19994 20.05 4.93994 20.05C4.67994 20.05 4.42994 19.96 4.22994 19.76C3.83994 19.37 3.83994 18.74 4.22994 18.35L7.70994 14.88L3.46994 10.64C3.17994 10.35 3.17994 9.88 3.46994 9.58L3.80994 9.25C5.28994 7.76 7.57994 7.49 9.35994 8.52L13.4899 4.91L13.2899 4.71C12.8999 4.32 12.8999 3.68 13.2899 3.29C13.6799 2.9 14.3199 2.9 14.7099 3.29L20.7099 9.29C21.0999 9.68 21.0999 10.32 20.7099 10.71Z" fill="#121331"/>
</g>
<defs>
<clipPath id="clip0_424_1160">
<rect width="24" height="24" fill="white"/>
</clipPath>
</defs>
</svg>
