<svg width="21" height="21" viewBox="0 0 21 21" fill="none" xmlns="http://www.w3.org/2000/svg">
<path d="M17.9 3.75998C15.96 1.91998 13.43 0.939976 10.76 0.999976C8.08998 1.06998 5.59998 2.16998 3.75998 4.09998C1.91998 6.03998 0.939976 8.56998 0.999976 11.24C1.06998 13.91 2.16998 16.4 4.09998 18.24C4.17998 18.32 4.25998 18.39 4.34998 18.46C6.18998 20.11 8.51998 21 10.99 21H11.24C13.63 20.94 15.88 20.05 17.65 18.46C17.85 18.29 18.05 18.1 18.24 17.9C20.03 16.02 21 13.58 21 10.99V10.76C20.93 8.08998 19.83 5.59998 17.9 3.75998ZM11.21 19.5C9.18998 19.54 7.25998 18.89 5.70998 17.64C6.15998 16.38 7.38998 15.51 8.74998 15.51H13.25C14.61 15.51 15.84 16.38 16.29 17.64C14.85 18.81 13.09 19.45 11.21 19.5ZM17.44 16.53C16.63 15.02 15.03 14.01 13.25 14.01H8.74998C6.96998 14.01 5.35998 15.02 4.55998 16.54C3.26998 15.06 2.54998 13.2 2.49998 11.21C2.44998 8.93998 3.27998 6.77998 4.84998 5.13998C6.40998 3.48998 8.51998 2.55998 10.79 2.49998H11.01C13.2 2.49998 15.27 3.32998 16.86 4.84998C17.68 5.62998 18.33 6.54998 18.78 7.54998C19.22 8.55998 19.47 9.65998 19.5 10.79C19.55 12.91 18.83 14.94 17.44 16.53Z" fill="white"/>
<path d="M13.75 12.5H10.75C8.96 12.5 7.5 11.04 7.5 9.25V7.25C7.5 5.46 8.96 4 10.75 4H11.25C13.04 4 14.5 5.46 14.5 7.25V11.75C14.5 12.16 14.16 12.5 13.75 12.5ZM10.75 5.5C9.79 5.5 9 6.29 9 7.25V9.25C9 10.21 9.79 11 10.75 11H13V7.25C13 6.29 12.21 5.5 11.25 5.5H10.75Z" fill="white"/>
</svg>
