<svg width="25" height="24" viewBox="0 0 25 24" fill="none" xmlns="http://www.w3.org/2000/svg">
<path opacity="0.933" fill-rule="evenodd" clip-rule="evenodd" d="M4.84375 2C9.23176 2 13.6198 2 18.0078 2C18.0121 2.02412 18.0252 2.04365 18.0469 2.05859C18.3081 2.12019 18.549 2.1918 18.7695 2.27344C19.0606 2.47332 19.3405 2.68816 19.6094 2.91797C20.319 3.62761 21.0286 4.33724 21.7383 5.04688C21.9172 5.28749 22.0865 5.53489 22.2461 5.78906C22.327 6.00578 22.3921 6.22715 22.4414 6.45312C22.4564 6.47484 22.4759 6.48785 22.5 6.49219C22.5 10.8802 22.5 15.2682 22.5 19.6562C22.1537 20.8489 21.3855 21.6301 20.1953 22C15.0651 22 9.93488 22 4.80469 22C3.6165 21.6321 2.84827 20.8509 2.5 19.6562C2.5 14.5521 2.5 9.44793 2.5 4.34375C2.85293 3.13144 3.63418 2.35019 4.84375 2ZM5.46875 3.21094C6.02864 3.21094 6.58855 3.21094 7.14844 3.21094C7.14191 4.59121 7.14844 5.97141 7.16797 7.35156C7.17918 7.44496 7.19871 7.53609 7.22656 7.625C7.31219 7.67809 7.3773 7.74969 7.42188 7.83984C7.49578 7.87785 7.57391 7.90391 7.65625 7.91797C10.1042 7.94402 12.5521 7.94402 15 7.91797C15.2103 7.86965 15.36 7.74594 15.4492 7.54688C15.4688 6.10164 15.4753 4.65631 15.4688 3.21094C16.2252 3.19621 16.9804 3.21574 17.7344 3.26953C17.9043 3.32849 18.0736 3.39359 18.2422 3.46484C19.2054 4.33698 20.1234 5.24193 20.9961 6.17969C21.0922 6.36977 21.1703 6.56508 21.2305 6.76562C21.263 10.9845 21.2565 15.2032 21.2109 19.4219C21.0283 20.0993 20.5986 20.529 19.9219 20.7109C19.2323 20.75 18.5421 20.763 17.8516 20.75C17.8581 17.8333 17.8516 14.9166 17.832 12C17.8044 11.709 17.6547 11.5072 17.3828 11.3945C14.1276 11.3685 10.8724 11.3685 7.61719 11.3945C7.36473 11.5036 7.215 11.6924 7.16797 11.9609C7.14844 14.8906 7.14191 17.8203 7.14844 20.75C6.45785 20.763 5.76774 20.75 5.07812 20.7109C4.40139 20.529 3.9717 20.0993 3.78906 19.4219C3.73698 14.4739 3.73698 9.52605 3.78906 4.57812C3.97136 3.90104 4.40104 3.47136 5.07812 3.28906C5.21396 3.263 5.34417 3.23696 5.46875 3.21094ZM8.4375 3.21094C10.3646 3.21094 12.2917 3.21094 14.2188 3.21094C14.2188 4.35677 14.2188 5.50261 14.2188 6.64844C12.2917 6.64844 10.3646 6.64844 8.4375 6.64844C8.4375 5.50261 8.4375 4.35677 8.4375 3.21094ZM8.4375 12.625C11.1458 12.625 13.8542 12.625 16.5625 12.625C16.5625 15.3333 16.5625 18.0417 16.5625 20.75C13.8542 20.75 11.1458 20.75 8.4375 20.75C8.4375 18.0417 8.4375 15.3333 8.4375 12.625Z" fill="white"/>
</svg>
