<svg width="24" height="24" viewBox="0 0 24 24" fill="none" xmlns="http://www.w3.org/2000/svg">
<g clip-path="url(#clip0_553_380)">
<path d="M3.74964 21C3.54964 21 3.35964 20.92 3.21964 20.78C3.01964 20.58 2.94964 20.28 3.03964 20.01L6.53964 9.51C6.61964 9.26 6.82964 9.08 7.07964 9.02C7.32964 8.96 7.59964 9.04 7.77964 9.22L14.7796 16.22C14.9596 16.4 15.0396 16.67 14.9796 16.92C14.9196 17.17 14.7296 17.38 14.4896 17.46L3.98964 20.96C3.90964 20.99 3.82964 21 3.74964 21ZM7.57964 11.14L4.93964 19.07L12.8696 16.43L7.57964 11.14Z" fill="#197741"/>
<path d="M13.0395 11.04C12.8495 11.04 12.6595 10.97 12.5095 10.82C12.2195 10.53 12.2195 10.05 12.5095 9.76001C13.0695 9.20001 13.6995 9.23001 14.0795 9.24001C14.4095 9.26001 14.4395 9.24001 14.5195 9.16001C14.5995 9.08001 14.6095 9.05001 14.5995 8.72001C14.5795 8.34001 14.5595 7.71001 15.1095 7.16001C15.6695 6.60001 16.2995 6.63001 16.6795 6.64001C17.0095 6.65001 17.0395 6.64001 17.1195 6.56001C17.1995 6.48001 17.2095 6.44001 17.1995 6.12001C17.1795 5.74001 17.1595 5.11001 17.7195 4.55001C18.2795 3.99001 18.9095 4.02001 19.2895 4.03001C19.6195 4.05001 19.6495 4.03001 19.7295 3.95001C20.0195 3.66001 20.4995 3.66001 20.7895 3.95001C21.0795 4.24001 21.0795 4.72001 20.7895 5.01001C20.2295 5.57001 19.5995 5.54001 19.2195 5.53001C18.8895 5.52001 18.8595 5.53001 18.7795 5.61001C18.6995 5.69001 18.6895 5.73001 18.6995 6.05001C18.7195 6.43001 18.7395 7.06001 18.1795 7.62001C17.6195 8.18001 16.9895 8.15001 16.6195 8.14001C16.2895 8.13001 16.2595 8.14001 16.1795 8.22001C16.0995 8.30001 16.0895 8.33001 16.0995 8.66001C16.1195 9.04001 16.1395 9.67001 15.5895 10.22C15.0295 10.78 14.4095 10.75 14.0195 10.74C13.6895 10.73 13.6595 10.74 13.5795 10.82C13.4295 10.97 13.2395 11.04 13.0395 11.04Z" fill="#197741"/>
<path d="M10.25 9C9.84 9 9.5 8.66 9.5 8.25V6.25C9.5 5.29 8.71 4.5 7.75 4.5C7.34 4.5 7 4.16 7 3.75C7 3.34 7.34 3 7.75 3C9.54 3 11 4.46 11 6.25V8.25C11 8.66 10.66 9 10.25 9Z" fill="#197741"/>
<path d="M20.25 17C19.84 17 19.5 16.66 19.5 16.25C19.5 15.29 18.71 14.5 17.75 14.5H15.75C15.34 14.5 15 14.16 15 13.75C15 13.34 15.34 13 15.75 13H17.75C19.54 13 21 14.46 21 16.25C21 16.66 20.66 17 20.25 17Z" fill="#197741"/>
<path d="M12.75 5.49999C12.65 5.49999 12.56 5.47999 12.46 5.43999C12.37 5.39999 12.29 5.34999 12.22 5.27999C12.08 5.13999 12 4.94999 12 4.74999C12 4.54999 12.08 4.35999 12.22 4.21999C12.43 4.00999 12.76 3.93999 13.04 4.05999C13.13 4.09999 13.21 4.14999 13.28 4.21999C13.35 4.28999 13.4 4.36999 13.44 4.45999C13.48 4.55999 13.5 4.64999 13.5 4.74999C13.5 4.94999 13.42 5.13999 13.28 5.27999C13.21 5.34999 13.13 5.39999 13.04 5.43999C12.94 5.47999 12.85 5.49999 12.75 5.49999Z" fill="#197741"/>
<path d="M20.25 12C20.05 12 19.86 11.92 19.72 11.78C19.65 11.71 19.6 11.63 19.56 11.54C19.52 11.45 19.5 11.35 19.5 11.25C19.5 11.05 19.58 10.86 19.72 10.72C19.79 10.65 19.87 10.6 19.96 10.56C20.15 10.48 20.35 10.48 20.54 10.56C20.63 10.6 20.71 10.65 20.78 10.72C20.92 10.86 21 11.05 21 11.25C21 11.35 20.98 11.45 20.94 11.54C20.9 11.63 20.85 11.71 20.78 11.78C20.64 11.92 20.45 12 20.25 12Z" fill="#197741"/>
</g>
<defs>
<clipPath id="clip0_553_380">
<rect width="24" height="24" fill="white"/>
</clipPath>
</defs>
</svg>
