<svg width="36" height="36" viewBox="0 0 36 36" fill="none" xmlns="http://www.w3.org/2000/svg">
<g clip-path="url(#clip0_165_178)">
<path d="M28.875 29.25H27V25.725C27 23.865 26.07 22.125 24.54 21.075L19.995 18L24.54 14.925C26.085 13.875 27 12.135 27 10.275V6.75H28.875C29.49 6.75 30 6.24 30 5.625C30 5.01 29.49 4.5 28.875 4.5H7.125C6.51 4.5 6 5.01 6 5.625C6 6.24 6.51 6.75 7.125 6.75H9V10.275C9 12.135 9.915 13.875 11.46 14.925L16.005 18L11.46 21.075C9.93 22.125 9 23.865 9 25.725V29.25H7.125C6.51 29.25 6 29.76 6 30.375C6 30.99 6.51 31.5 7.125 31.5H28.875C29.49 31.5 30 30.99 30 30.375C30 29.76 29.49 29.25 28.875 29.25ZM12.735 13.065C11.805 12.435 11.25 11.385 11.25 10.275V6.75H24.75V10.275C24.75 11.385 24.195 12.435 23.265 13.065L18 16.635L12.735 13.065ZM24.75 29.25H11.25V25.725C11.25 24.615 11.805 23.565 12.735 22.935L18 19.365L23.265 22.935C24.195 23.565 24.75 24.615 24.75 25.725V29.25Z" fill="black"/>
</g>
<defs>
<clipPath id="clip0_165_178">
<rect width="36" height="36" fill="white"/>
</clipPath>
</defs>
</svg>
