<svg width="24" height="24" viewBox="0 0 24 24" fill="none" xmlns="http://www.w3.org/2000/svg">
<g clip-path="url(#clip0_338_920)">
<path d="M12 14.5C11.59 14.5 11.25 14.16 11.25 13.75V9.75C11.25 9.34 11.59 9 12 9C12.41 9 12.75 9.34 12.75 9.75V13.75C12.75 14.16 12.41 14.5 12 14.5Z" fill="#8C6D1F"/>
<path d="M12 18C11.87 18 11.74 17.97 11.62 17.92C11.49 17.87 11.39 17.8 11.29 17.71C11.1 17.52 11 17.27 11 17C11 16.74 11.11 16.48 11.29 16.29C11.66 15.92 12.33 15.92 12.71 16.29C12.89 16.48 13 16.74 13 17C13 17.27 12.9 17.52 12.71 17.71C12.52 17.9 12.27 18 12 18Z" fill="#8C6D1F"/>
<path d="M21.2496 21H2.7496C2.4896 21 2.2396 20.86 2.1096 20.64C1.9696 20.42 1.9696 20.14 2.0896 19.9L11.3396 2.4C11.5996 1.91 12.4096 1.91 12.6696 2.4L21.9196 19.9C22.0396 20.13 22.0396 20.41 21.8996 20.64C21.7596 20.86 21.5096 21 21.2496 21ZM3.9996 19.5H19.9996L11.9996 4.35L3.9996 19.5Z" fill="#8C6D1F"/>
</g>
<defs>
<clipPath id="clip0_338_920">
<rect width="24" height="24" fill="white"/>
</clipPath>
</defs>
</svg>
