<svg xmlns="http://www.w3.org/2000/svg" width="48" height="48" fill="none" xmlns:v="https://vecta.io/nano"><path d="M0 24c0 13.255 10.745 24 24 24s24-10.745 24-24S37.255 0 24 0 0 10.745 0 24z" fill="#7766c6"/><path d="M15.205 37.18c-1.837 0-3.693-.703-5.097-2.107a7.22 7.22 0 0 1 0-10.195l6.376-6.376c1.351-1.369 3.17-2.107 5.097-2.107s3.729.756 5.097 2.107a7.14 7.14 0 0 1 2.053 4.215c.09.738-.432 1.423-1.171 1.513-.721.072-1.423-.432-1.495-1.171-.126-1.009-.576-1.909-1.279-2.63-1.711-1.693-4.665-1.693-6.376 0l-6.376 6.376c-1.747 1.747-1.747 4.611 0 6.376s4.611 1.747 6.376 0l1.675-1.675a1.36 1.36 0 0 1 1.909 0 1.36 1.36 0 0 1 0 1.909l-1.675 1.675a7.33 7.33 0 0 1-5.115 2.089zm11.545-6.462a7.2 7.2 0 0 1-5.097-2.107 7.14 7.14 0 0 1-2.053-4.215 1.34 1.34 0 0 1 1.171-1.495c.72-.072 1.405.432 1.495 1.171.126 1.009.558 1.909 1.279 2.63 1.747 1.747 4.611 1.747 6.376 0l6.376-6.376a4.48 4.48 0 0 0 1.315-3.188 4.48 4.48 0 0 0-1.315-3.188c-1.693-1.693-4.665-1.693-6.376 0l-1.675 1.675a1.36 1.36 0 0 1-1.909 0 1.36 1.36 0 0 1 0-1.909l1.675-1.675c2.72-2.72 7.475-2.72 10.195 0 1.369 1.369 2.107 3.17 2.107 5.097s-.757 3.729-2.107 5.097l-6.376 6.376a7.16 7.16 0 0 1-5.079 2.107z" fill="#fff"/></svg>