<svg id="eCktoPwvSzD1" xmlns="http://www.w3.org/2000/svg" xmlns:xlink="http://www.w3.org/1999/xlink" viewBox="0 0 24 24" shapeRendering="geometricPrecision" textRendering="geometricPrecision">
<style><![CDATA[
#eCktoPwvSzD5_to {animation: eCktoPwvSzD5_to__to 2000ms linear infinite normal forwards}@keyframes eCktoPwvSzD5_to__to { 0% {offset-distance: 0%;animation-timing-function: cubic-bezier(0.55,0.085,0.68,0.53)} 50% {offset-distance: 50%;animation-timing-function: cubic-bezier(0.25,0.46,0.45,0.94)} 100% {offset-distance: 100%}} #eCktoPwvSzD5_tr {animation: eCktoPwvSzD5_tr__tr 2000ms linear infinite normal forwards}@keyframes eCktoPwvSzD5_tr__tr { 0% {transform: rotate(0deg)} 50% {transform: rotate(-12deg)} 100% {transform: rotate(0deg)}} #eCktoPwvSzD6_to {animation: eCktoPwvSzD6_to__to 2000ms linear infinite normal forwards}@keyframes eCktoPwvSzD6_to__to { 0% {transform: translate(15.22px,10.26px);animation-timing-function: cubic-bezier(0.55,0.085,0.68,0.53)} 50% {transform: translate(15.72px,9.76px);animation-timing-function: cubic-bezier(0.25,0.46,0.45,0.94)} 100% {transform: translate(15.22px,10.26px)}} #eCktoPwvSzD6_tr {animation: eCktoPwvSzD6_tr__tr 2000ms linear infinite normal forwards}@keyframes eCktoPwvSzD6_tr__tr { 0% {transform: rotate(0deg)} 50% {transform: rotate(-12deg)} 100% {transform: rotate(0deg)}}
]]></style>
<g><rect width="24" height="24" rx="0" ry="0" fill="none"/></g><g><g id="eCktoPwvSzD5_to" style="offset-path:path('M8.79,13.82C8.79,13.82,8.29,14.32,8.29,14.32L8.79,13.82');offset-rotate:0deg"><g id="eCktoPwvSzD5_tr" transform="rotate(0)"><path d="M7.03,19.59c-1.02,0-2.05-.39-2.83-1.17-1.56-1.56-1.56-4.1,0-5.66L7.74,9.22c.75-.76,1.76-1.17,2.83-1.17s2.07.42,2.83,1.17c.64.64,1.03,1.45,1.14,2.34.05.41-.24.79-.65.84-.4.04-.79-.24-.83-.65-.07-.56-.32-1.06-.71-1.46-.95-.94-2.59-.94-3.54,0L5.27,13.83c-.97.97-.97,2.56,0,3.54s2.56.97,3.54,0l.93-.93c.29-.29.77-.29,1.06,0s.29.77,0,1.06l-.93.93c-.79.77-1.82,1.16-2.84,1.16Z" transform="translate(-8.787803,-13.82)" fill="#7766c6"/></g></g><g id="eCktoPwvSzD6_to" transform="translate(15.22,10.26)"><g id="eCktoPwvSzD6_tr" transform="rotate(0)"><path d="M13.44,16.01c-1.02,0-2.05-.39-2.83-1.17-.64-.64-1.03-1.45-1.14-2.34-.05-.41.24-.78.65-.83.4-.04.78.24.83.65.07.56.31,1.06.71,1.46.97.97,2.56.97,3.54,0l3.54-3.54c.47-.47.73-1.1.73-1.77s-.26-1.3-.73-1.77c-.94-.94-2.59-.94-3.54,0l-.93.93c-.29.29-.77.29-1.06,0s-.29-.77,0-1.06l.93-.93c1.51-1.51,4.15-1.51,5.66,0c.76.76,1.17,1.76,1.17,2.83s-.42,2.07-1.17,2.83l-3.54,3.54c-.78.78-1.8,1.17-2.82,1.17Z" transform="translate(-15.217196,-10.258749)" fill="#7766c6"/></g></g></g></svg>
